<?xml version="1.0" encoding="UTF-8"?>
<svg id="Layer_1" xmlns="http://www.w3.org/2000/svg" version="1.1" viewBox="0 0 792 242.43">
  <!-- Generator: Adobe Illustrator 29.6.1, SVG Export Plug-In . SVG Version: 2.1.1 Build 9)  -->
  <defs>
    <style>
      .st0 {
        fill: #231f20;
      }
    </style>
  </defs>
  <path class="st0" d="M759.68,101.5c0,5.72-4.49,10.2-10.33,10.2s-10.39-4.49-10.39-10.2,4.61-10.08,10.39-10.08,10.33,4.49,10.33,10.08ZM741.55,101.5c0,4.49,3.32,8.05,7.87,8.05s7.68-3.56,7.68-7.99-3.26-8.11-7.75-8.11-7.81,3.63-7.81,8.05ZM747.76,106.78h-2.34v-10.08c.92-.18,2.21-.31,3.87-.31,1.91,0,2.77.31,3.5.74.55.43.98,1.23.98,2.21,0,1.11-.86,1.97-2.09,2.34v.12c.98.37,1.54,1.11,1.85,2.46.31,1.54.49,2.15.74,2.52h-2.52c-.31-.37-.49-1.29-.8-2.46-.18-1.11-.8-1.6-2.09-1.6h-1.11v4.06ZM747.82,101.07h1.11c1.29,0,2.34-.43,2.34-1.48,0-.92-.68-1.54-2.15-1.54-.62,0-1.05.06-1.29.12v2.89Z"/>
  <g>
    <path class="st0" d="M336.4,80.02c18.87.26,27.99,4.94,30.59,6.56.43.27.99.07,1.17-.4l12.45-32.46c.1-.26-.24-.46-.42-.25l-13.08,15.17s-3.65,4-3.68-4.51c-.02-5.59,0-9.71,0-11.48,0-.31-.39-.44-.58-.19l-8.78,11.67s-4.37,5.35-7.58-1.36c-2.58-5.39-8.24-24.38-9.72-29.4-.11-.36-.61-.36-.72,0-1.48,5.03-7.14,24.02-9.72,29.4-3.21,6.71-7.58,1.36-7.58,1.36l-8.78-11.67c-.19-.25-.58-.12-.58.19,0,1.77.01,5.89,0,11.48-.03,8.51-3.68,4.51-3.68,4.51l-13.08-15.17c-.18-.21-.52,0-.42.25l12.45,32.46c.18.47.74.66,1.17.4,2.6-1.62,11.71-6.29,30.59-6.55Z"/>
    <circle class="st0" cx="336.4" cy="26.64" r="3.74"/>
    <circle class="st0" cx="307.7" cy="46.44" r="3.74"/>
    <circle class="st0" cx="289.21" cy="48.33" r="3.74"/>
    <circle class="st0" cx="365.13" cy="46.45" r="3.74"/>
    <circle class="st0" cx="383.61" cy="48.34" r="3.74"/>
  </g>
  <path class="st0" d="M297.73,190c-10.06-10.9-15.09-24.9-15.09-42.01s5.03-31.2,15.09-42.09c10.06-10.9,22.98-16.35,38.74-16.35s28.75,5.45,38.78,16.35c10.03,10.9,15.05,24.93,15.05,42.09s-5.02,31.12-15.05,42.01c-10.04,10.9-22.96,16.34-38.78,16.34s-28.68-5.45-38.74-16.34ZM361.5,185.4c6.14-9.17,9.2-21.64,9.2-37.41s-3.07-28.25-9.2-37.45c-6.13-9.2-14.48-13.8-25.02-13.8s-18.82,4.6-24.98,13.8c-6.16,9.2-9.24,21.69-9.24,37.45s3.08,28.24,9.24,37.41c6.16,9.18,14.49,13.76,24.98,13.76s18.89-4.59,25.02-13.76Z"/>
  <path class="st0" d="M737.17,175.27c-3.87,7.91-8.31,13.49-13.32,16.75-5.01,3.26-11.68,4.88-20.02,4.88h-17.27c-4.03,0-6.62-.57-7.75-1.7-1.13-1.13-1.69-3.71-1.69-7.75v-37.53h24.86c6.56,0,11.19,1.16,13.88,3.47,2.69,2.31,4.04,6.32,4.04,12.03h4.04v-38.18h-4.04c0,5.7-1.35,9.71-4.04,12.03-2.69,2.32-7.32,3.47-13.88,3.47h-24.86v-34.14c0-3.98.61-6.58,1.82-7.79,1.21-1.21,3.81-1.82,7.79-1.82h22.44c6.56,0,11.37,1.32,14.41,3.96,3.04,2.64,5.02,7.18,5.93,13.64h4.04l-.57-12.43-.48-12.35h-125.43v4.04c6.4.22,10.47,1.72,12.19,4.52,1.72,2.8,2.58,9.31,2.58,19.53v51.64l-62.15-79.73h-60.42v4.04c5.33.32,8.76,1.63,10.29,3.91,1.53,2.29,1.44,5.93-.28,10.94l-20.68,63-24.81-68.25c-1.29-3.44-1.18-5.91.32-7.39,1.51-1.48,4.68-2.22,9.52-2.22v-4.04h-42.69v4.04c4.79.27,8.08,1.1,9.89,2.5,1.8,1.4,3.62,4.57,5.45,9.52l6.47,17.68-17.27,48.25-24.17-68.35c-1.24-3.44-1.1-5.91.4-7.39,1.51-1.48,4.68-2.22,9.52-2.22v-4.04h-40.98v4.04c4.04.27,6.83,1.1,8.39,2.5,1.56,1.4,3.23,4.57,5,9.52l35.43,98.8h3.07l25.02-69.04,25.27,69.04h3.07l31.96-95.81c1.99-5.86,3.79-9.67,5.41-11.42,1.61-1.75,4.41-2.95,8.39-3.59,4.14.27,7.32,1.1,9.53,2.5,1.67,1.08,3.77,3.15,6.29,6.22v71.43c0,10.22-.86,16.74-2.58,19.53-1.72,2.8-5.78,4.31-12.19,4.52v4.04h37.78v-4.04c-6.4-.21-10.47-1.72-12.19-4.52-1.72-2.8-2.58-9.3-2.58-19.52v-61.3l71.68,91.96h3.07v-86.77c0-10.22.86-16.73,2.58-19.53,1.72-2.8,5.78-4.3,12.19-4.52,6.4.38,10.47,1.79,12.19,4.24,1.72,2.45,2.58,8.03,2.58,16.75v62.23c0,8.72-.86,14.3-2.58,16.75-1.72,2.45-5.79,3.86-12.19,4.24v4.04h87.66l4.52-14.45,4.44-14.37h-4.28Z"/>
  <path class="st0" d="M284.29,197.54c-2.13-1.4-5.13-4.57-9-9.53l-28.09-36.64c6.24-1.45,11.57-3.63,15.98-6.54,8.02-5.38,12.03-12.86,12.03-22.44s-3.85-17.61-11.54-22.8c-7.7-5.19-18.94-7.79-33.74-7.79h-43.18v4.04c6.4.43,10.47,1.87,12.19,4.32,1.72,2.45,2.58,8.01,2.58,16.67v62.23c0,8.66-.86,14.21-2.58,16.63-.41.59-.97,1.12-1.64,1.59-3.39,2.15-10.54,1.78-10.54,1.78-5.02-.33-8.98-1.37-11.89-3.11-2.91-1.74-7.24-5.68-12.99-11.84l-53.97-58.9,10.53-9.93c10.23-9.56,19.29-18.58,27.18-27.07,6.49-6.89,11.62-11.42,15.4-13.59,3.78-2.17,9.45-3.86,17-5.07v-5.02h-52.94v5.02c8.43.53,13.02,2.37,13.79,5.52.77,3.14-2.16,8.16-8.78,15.05-5.76,5.95-12.08,12.2-18.97,18.76-8.56,8.16-16.76,15.51-24.59,22.06v-42.73c0-7.62,1.07-12.52,3.21-14.69,2.14-2.17,7.19-3.49,15.15-3.96v-5.02h-58.48v5.02c7.96.47,13.01,2.22,15.15,5.27,2.14,3.04,3.21,9.98,3.21,20.81v77.34c0,10.83-1.07,17.76-3.21,20.76-2.14,3.08-7.19,4.85-15.15,5.32v5.02h58.48v-5.02c-7.96-.47-13.01-1.79-15.15-3.96-2.14-2.17-3.21-7.07-3.21-14.7v-36.81l5.17-4.43,40.51,44.95c4.88,5.35,6.79,9.18,5.72,11.49-1.07,2.31-5.32,3.46-12.74,3.46v5.02h108.61v-4.04c-6.4-.38-10.47-1.44-12.19-3.19-1.72-1.75-2.58-5.69-2.58-11.82v-32.13h7.84l38.57,51.17h28.09v-4.04c-4.04-.27-7.12-1.1-9.24-2.5ZM219.03,146.13v-37.53c0-3.98.6-6.58,1.82-7.79s3.81-1.82,7.79-1.82h1.29c7.91,0,14.17,1.99,18.77,5.97,4.6,3.98,6.9,9.39,6.9,16.22,0,8.18-2.18,14.38-6.54,18.61-4.36,4.22-10.74,6.34-19.13,6.34h-10.9Z"/>
</svg>